# xmcd CD database file
#
# Track frame offsets:
#	183
#	21358
#	41193
#	59373
#	78540
#	102170
#	121180
#	134318
#	154505
#	175875
#	186413
#	200238
#	214720
#
# Disc length: 3085 seconds
#
# Revision: 3
# Processed by: cddbd v1.5.2PL0 Copyright (c) Steve Scherf et al.
# Submitted via: CDex 1.51
#
DISCID=bb0c0b0d
DTITLE=Selena - Selena - Dreaming of You
DYEAR=1995
DGENRE=Vocal
TTITLE0=I Could Fall In Love
TTITLE1=Captive Heart
TTITLE2=I'm Getting Used To You
TTITLE3=God's Child (Baila Conmigo)
TTITLE4=Dreaming of You
TTITLE5=Missing My Baby
TTITLE6=Amor Prohibido (Forbidden Love)
TTITLE7=Wherever You Are (Dondequiera Que Estes)
TTITLE8=Techno Cumbia
TTITLE9=Ei Toro Relajo (The Crazy Bull)
TTITLE10=Como La Flor ( Like a Flower)
TTITLE11=Tu Solo Tu (You, Only You)
TTITLE12=Bidi Bidi Bom Bom
EXTD=YEAR: 1995
EXTT0=
EXTT1=
EXTT2=
EXTT3=
EXTT4=
EXTT5=
EXTT6=
EXTT7=
EXTT8=
EXTT9=
EXTT10=
EXTT11=
EXTT12=
PLAYORDER=
